<?xml version="1.0" encoding="UTF-8" standalone="no"?>
<!-- Created with Inkscape (http://www.inkscape.org/) -->

<svg
   xmlns:dc="http://purl.org/dc/elements/1.1/"
   xmlns:cc="http://creativecommons.org/ns#"
   xmlns:rdf="http://www.w3.org/1999/02/22-rdf-syntax-ns#"
   xmlns:svg="http://www.w3.org/2000/svg"
   xmlns="http://www.w3.org/2000/svg"
   xmlns:sodipodi="http://sodipodi.sourceforge.net/DTD/sodipodi-0.dtd"
   xmlns:inkscape="http://www.inkscape.org/namespaces/inkscape"
   width="96"
   height="96"
   viewBox="0 0 25.400001 25.399999"
   version="1.1"
   id="svg8"
   inkscape:version="0.92.2 2405546, 2018-03-11"
   sodipodi:docname="logo_triflow.svg">
  <sodipodi:namedview
     id="base"
     pagecolor="#ffffff"
     bordercolor="#666666"
     borderopacity="1.0"
     inkscape:pageopacity="0.0"
     inkscape:pageshadow="2"
     inkscape:zoom="2.0000001"
     inkscape:cx="-37.186534"
     inkscape:cy="77.53739"
     inkscape:document-units="mm"
     inkscape:current-layer="layer1"
     showgrid="false"
     inkscape:window-width="1920"
     inkscape:window-height="1062"
     inkscape:window-x="0"
     inkscape:window-y="18"
     inkscape:window-maximized="1"
     inkscape:snap-global="true"
     inkscape:snap-bbox="true"
     inkscape:bbox-paths="true"
     inkscape:bbox-nodes="true"
     inkscape:snap-bbox-edge-midpoints="true"
     inkscape:snap-bbox-midpoints="true"
     fit-margin-top="0"
     fit-margin-left="0"
     fit-margin-right="0"
     fit-margin-bottom="0"
     units="px" />
  <defs
     id="defs2" />
  <metadata
     id="metadata5">
    <rdf:RDF>
      <cc:Work
         rdf:about="">
        <dc:format>image/svg+xml</dc:format>
        <dc:type
           rdf:resource="http://purl.org/dc/dcmitype/StillImage" />
        <dc:title></dc:title>
      </cc:Work>
    </rdf:RDF>
  </metadata>
  <g
     inkscape:label="Calque 1"
     inkscape:groupmode="layer"
     id="layer1"
     transform="translate(-38.577343,-228.08787)">
    <g
       id="g4825"
       transform="matrix(0.78980449,0,0,0.78980449,10.090877,48.434645)">
      <path
         sodipodi:nodetypes="czzzzzzzczzzzzzzczzzzzzzc"
         inkscape:connector-curvature="0"
         d="m 39.035613,253.22329 h 1.653646 c 0,0 1.090737,-1.05237 1.641952,-1.05237 0.551215,0 1.114124,1.05237 1.665339,1.05237 0.551215,0 1.090738,-1.05237 1.641953,-1.05237 0.551215,0 1.114124,1.05237 1.665339,1.05237 0.551215,0 1.090737,-1.05237 1.641952,-1.05237 0.551215,0 1.665339,1.05237 1.665339,1.05237 h 1.653646 c 0,0 -0.551215,-0.95473 -0.826823,-1.4321 -0.275608,-0.47737 0.349149,-1.46922 0.07354,-1.94659 -0.275608,-0.47737 -1.451579,-0.44024 -1.727187,-0.91761 -0.275608,-0.47737 0.349148,-1.46922 0.07354,-1.94659 -0.275607,-0.47737 -1.451579,-0.44024 -1.727186,-0.91761 -0.275607,-0.47737 0.349149,-1.46922 0.07354,-1.94659 -0.275608,-0.47737 -1.451579,-0.44024 -1.727187,-0.91761 -0.275608,-0.47737 -0.826823,-1.4321 -0.826823,-1.4321 -0.275608,0.47737 -0.551215,0.95473 -0.826823,1.4321 -0.275608,0.47737 -1.457426,0.41685 -1.733034,0.89422 -0.275608,0.47737 0.354996,1.49261 0.07939,1.96998 -0.275608,0.47737 -1.457426,0.41685 -1.733034,0.89422 -0.275608,0.47737 0.354996,1.49261 0.07939,1.96998 -0.275608,0.47737 -1.457426,0.41685 -1.733034,0.89422 -0.275608,0.47737 0.354997,1.49261 0.07939,1.96998 -0.275608,0.47737 -0.551215,0.95473 -0.826823,1.4321 z"
         style="fill:none;stroke:#000000;stroke-width:0.52916664"
         inkscape:label="Triangle"
         id="path853-7" />
      <path
         sodipodi:nodetypes="czzzzzzzczzzzzzzczzzzzzzc"
         inkscape:connector-curvature="0"
         d="m 52.264778,253.22329 h 1.653646 c 0,0 1.090738,-1.05237 1.641952,-1.05237 0.551215,0 1.114124,1.05237 1.66534,1.05237 0.551214,0 1.090737,-1.05237 1.641952,-1.05237 0.551216,0 1.114125,1.05237 1.665339,1.05237 0.551215,0 1.090738,-1.05237 1.641952,-1.05237 0.551215,0 1.66534,1.05237 1.66534,1.05237 h 1.653645 c 0,0 -0.551215,-0.95473 -0.826823,-1.4321 -0.275608,-0.47737 0.349149,-1.46922 0.07354,-1.94659 -0.275609,-0.47737 -1.451579,-0.44024 -1.727187,-0.91761 -0.275607,-0.47737 0.349148,-1.46922 0.07354,-1.94659 -0.275606,-0.47737 -1.451579,-0.44024 -1.727185,-0.91761 -0.275607,-0.47737 0.349148,-1.46922 0.07354,-1.94659 -0.275608,-0.47737 -1.451579,-0.44024 -1.727187,-0.91761 -0.275608,-0.47737 -0.826823,-1.4321 -0.826823,-1.4321 -0.275608,0.47737 -0.551214,0.95473 -0.826822,1.4321 -0.275608,0.47737 -1.457427,0.41685 -1.733035,0.89422 -0.275608,0.47737 0.354996,1.49261 0.07939,1.96998 -0.275608,0.47737 -1.457426,0.41685 -1.733034,0.89422 -0.275608,0.47737 0.354996,1.49261 0.07939,1.96998 -0.275608,0.47737 -1.457426,0.41685 -1.733034,0.89422 -0.275608,0.47737 0.354997,1.49261 0.07939,1.96998 -0.275608,0.47737 -0.551215,0.95473 -0.826823,1.4321 z"
         style="fill:none;stroke:#000000;stroke-width:0.52916664"
         inkscape:label="Triangle"
         id="path853-7-5" />
      <path
         sodipodi:nodetypes="czzzzzzzczzzzzzzczzzzzzzc"
         inkscape:connector-curvature="0"
         d="m 45.650193,241.76649 h 1.653646 c 0,0 1.090738,-1.05237 1.641952,-1.05237 0.551215,0 1.114124,1.05237 1.66534,1.05237 0.551214,0 1.090737,-1.05237 1.641952,-1.05237 0.551216,0 1.114125,1.05237 1.665339,1.05237 0.551215,0 1.090738,-1.05237 1.641952,-1.05237 0.551215,0 1.66534,1.05237 1.66534,1.05237 h 1.653645 c 0,0 -0.551215,-0.95473 -0.826823,-1.4321 -0.275608,-0.47737 0.349149,-1.46922 0.07354,-1.94659 -0.275609,-0.47737 -1.451579,-0.44024 -1.727187,-0.91761 -0.275607,-0.47737 0.349148,-1.46922 0.07354,-1.94659 -0.275606,-0.47737 -1.451579,-0.44024 -1.727185,-0.91761 -0.275607,-0.47737 0.349148,-1.46922 0.07354,-1.94659 -0.275608,-0.47737 -1.451579,-0.44024 -1.727187,-0.91761 -0.275608,-0.47737 -0.826823,-1.4321 -0.826823,-1.4321 -0.275608,0.47737 -0.551214,0.95473 -0.826822,1.4321 -0.275608,0.47737 -1.457427,0.41685 -1.733035,0.89422 -0.275608,0.47737 0.354996,1.49261 0.07939,1.96998 -0.275608,0.47737 -1.457426,0.41685 -1.733034,0.89422 -0.275608,0.47737 0.354996,1.49261 0.07939,1.96998 -0.275608,0.47737 -1.457426,0.41685 -1.733034,0.89422 -0.275608,0.47737 0.354997,1.49261 0.07939,1.96998 -0.275608,0.47737 -0.551215,0.95473 -0.826823,1.4321 z"
         style="fill:none;stroke:#000000;stroke-width:0.52916664"
         inkscape:label="Triangle"
         id="path853-7-9" />
    </g>
  </g>
</svg>
